<?xml version="1.0" encoding="utf-8"?>
<!-- Generator: Adobe Illustrator 21.0.2, SVG Export Plug-In . SVG Version: 6.00 Build 0)  -->
<svg version="1.1" id="Layer_1" xmlns="http://www.w3.org/2000/svg" xmlns:xlink="http://www.w3.org/1999/xlink" x="0px" y="0px"
	 viewBox="0 0 128 128" style="enable-background:new 0 0 128 128;" xml:space="preserve">
<style type="text/css">
	.st0{fill:#F2C101;}
</style>
<g>
	<g>
		<path class="st0" d="M58.5,121.3c-0.1,0-0.2,0-0.3,0c-14.5-0.1-28.1-5.8-38.3-16.1S4.2,81.3,4.3,66.8c0.1-14.5,5.8-28.1,16.1-38.3
			c10.2-10.1,23.8-15.7,38.1-15.7c0.1,0,0.2,0,0.3,0c10.5,0,20.6,3.1,29.3,8.8c1.7,1.1,2.2,3.4,1.1,5.1C88,28.5,85.7,29,84,27.8
			c-7.5-4.9-16.3-7.5-25.3-7.6c-0.1,0-0.2,0-0.2,0c-12.4,0-24.1,4.8-32.9,13.5c-8.9,8.8-13.8,20.5-13.9,33
			c-0.1,12.5,4.8,24.3,13.5,33.1c8.8,8.9,20.5,13.8,33,13.9c0.1,0,0.2,0,0.2,0c12.4,0,24.1-4.8,32.9-13.5c8.9-8.8,13.8-20.5,13.9-33
			c0-4.7-0.6-9.3-2-13.7c-0.6-2,0.5-4,2.5-4.6c2-0.6,4,0.5,4.6,2.5c1.6,5.1,2.3,10.5,2.3,15.9c-0.1,14.5-5.8,28.1-16.1,38.3
			C86.4,115.7,72.9,121.2,58.5,121.3z"/>
	</g>
	<g>
		<path class="st0" d="M56.7,90.7C56.6,90.7,56.6,90.7,56.7,90.7c-1.2,0-2.3-0.6-3-1.5L32.2,61.2c-1.2-1.6-0.9-4,0.7-5.2
			c1.6-1.3,4-0.9,5.2,0.7l18.7,24.4l60.3-72c1.3-1.6,3.7-1.8,5.2-0.5c1.6,1.3,1.8,3.7,0.5,5.2L59.5,89.4
			C58.8,90.3,57.8,90.7,56.7,90.7z"/>
	</g>
</g>
</svg>
