<?xml version="1.0" encoding="utf-8"?>
<!-- Generator: Adobe Illustrator 18.1.1, SVG Export Plug-In . SVG Version: 6.00 Build 0)  -->
<svg version="1.1" id="Capa_1" xmlns="http://www.w3.org/2000/svg" xmlns:xlink="http://www.w3.org/1999/xlink" x="0px" y="0px"
	 viewBox="0 0 300 300" enable-background="new 0 0 300 300" xml:space="preserve">
<g>
	<path fill="#ECC109" d="M275.8,24.2v251.5H24.2V24.2H275.8 M291.8,8.2H8.2v283.5h283.5L291.8,8.2L291.8,8.2z"/>
</g>
<g>
	<g>
		<path fill="#ECC109" d="M154.9,111.6v77h-21.3v-50.5c-3.4,2.6-6.8,4.7-10,6.4c-3.2,1.6-7.3,3.2-12.1,4.6v-17.3
			c7.2-2.3,12.7-5.1,16.7-8.3c4-3.2,7.1-7.2,9.3-12h17.4V111.6z"/>
	</g>
	<g>
		<path fill="#ECC109" d="M190.4,147c-3.3-1.8-5.7-3.7-7.2-5.9c-2.1-3-3.1-6.4-3.1-10.2c0-6.3,3-11.5,8.9-15.5
			c4.6-3.1,10.8-4.6,18.4-4.6c10.1,0,17.6,1.9,22.4,5.8c4.8,3.9,7.3,8.7,7.3,14.6c0,3.4-1,6.6-2.9,9.6c-1.4,2.2-3.7,4.3-6.8,6.4
			c4.1,2,7.2,4.6,9.2,7.8s3,6.8,3,10.7c0,3.8-0.9,7.3-2.6,10.6c-1.7,3.3-3.9,5.8-6.4,7.6s-5.7,3.1-9.5,4c-3.8,0.8-7.8,1.3-12.1,1.3
			c-8,0-14.2-0.9-18.4-2.8c-4.2-1.9-7.5-4.7-9.7-8.4s-3.3-7.8-3.3-12.3c0-4.4,1-8.2,3.1-11.3C182.9,151,186.1,148.6,190.4,147z
			 M198.7,164.7c0,3.3,1,6.1,3,8.2c2,2.1,4.4,3.2,7,3.2c2.5,0,4.8-1.1,6.8-3.2c2-2.2,3-4.9,3-8.2s-1-6.1-3-8.2c-2-2.1-4.3-3.2-7-3.2
			c-2.6,0-4.9,1-6.8,3.1C199.7,158.4,198.7,161.2,198.7,164.7z M199.9,132.1c0,2.6,0.8,4.7,2.5,6.3c1.6,1.6,3.8,2.4,6.5,2.4
			c2.4,0,4.4-0.8,5.9-2.4c1.5-1.6,2.3-3.6,2.3-6.1c0-2.6-0.8-4.7-2.4-6.4c-1.6-1.6-3.7-2.5-6.2-2.5s-4.6,0.8-6.2,2.4
			C200.7,127.5,199.9,129.5,199.9,132.1z"/>
	</g>
	<g>
		<path fill="#ECC109" d="M56.5,144.1h14.2v-14.3h12v14.3h14.3v12H82.6v14.2h-12V156H56.5V144.1z"/>
	</g>
</g>
</svg>
