<?xml version="1.0" encoding="utf-8"?>
<!-- Generator: Adobe Illustrator 18.1.1, SVG Export Plug-In . SVG Version: 6.00 Build 0)  -->
<svg version="1.1" id="Layer_1" xmlns="http://www.w3.org/2000/svg" xmlns:xlink="http://www.w3.org/1999/xlink" x="0px" y="0px"
	 viewBox="-144 145 10.7 12" enable-background="new -144 145 10.7 12" xml:space="preserve">
<g>
	<g>
		<g>
			<g>
				<g>
					<g>
						<path d="M-133.7,146.7h-2.5v-0.4c0-0.7-0.6-1.3-1.3-1.3h-2.4c-0.7,0-1.3,0.6-1.3,1.3v0.4h-2.5c-0.2,0-0.3,0.1-0.3,0.3
							c0,0.2,0.1,0.3,0.3,0.3h0.6v7.8c0,1,0.8,1.8,1.8,1.8h5.2c1,0,1.8-0.8,1.8-1.8v-7.8h0.6c0.2,0,0.3-0.1,0.3-0.3
							C-133.3,146.9-133.5,146.7-133.7,146.7L-133.7,146.7z M-140.5,146.3c0-0.4,0.3-0.7,0.7-0.7h2.4c0.4,0,0.7,0.3,0.7,0.7v0.4
							h-3.7V146.3z M-134.9,155.2c0,0.6-0.5,1.1-1.1,1.1h-5.2c-0.6,0-1.1-0.5-1.1-1.1v-7.8h7.5L-134.9,155.2L-134.9,155.2z"/>
						<path d="M-138.7,155.1c0.2,0,0.3-0.1,0.3-0.3v-5.9c0-0.2-0.1-0.3-0.3-0.3c-0.2,0-0.3,0.1-0.3,0.3v5.9
							C-139,155-138.9,155.1-138.7,155.1L-138.7,155.1z"/>
						<path d="M-140.8,154.8c0.2,0,0.3-0.1,0.3-0.3v-5.1c0-0.2-0.1-0.3-0.3-0.3s-0.3,0.1-0.3,0.3v5.1
							C-141.2,154.6-141,154.8-140.8,154.8L-140.8,154.8z"/>
						<path d="M-136.5,154.8c0.2,0,0.3-0.1,0.3-0.3v-5.1c0-0.2-0.1-0.3-0.3-0.3c-0.2,0-0.3,0.1-0.3,0.3v5.1
							C-136.8,154.6-136.7,154.8-136.5,154.8L-136.5,154.8z"/>
					</g>
				</g>
			</g>
		</g>
	</g>
</g>
</svg>
