<?xml version="1.0" encoding="utf-8"?>
<!-- Generator: Adobe Illustrator 16.0.0, SVG Export Plug-In . SVG Version: 6.00 Build 0)  -->
<!DOCTYPE svg PUBLIC "-//W3C//DTD SVG 1.1//EN" "http://www.w3.org/Graphics/SVG/1.1/DTD/svg11.dtd">
<svg version="1.1" id="Layer_1" xmlns="http://www.w3.org/2000/svg" xmlns:xlink="http://www.w3.org/1999/xlink" x="0px" y="0px"
	 width="11.45px" height="10.728px" viewBox="0 0 11.45 10.728" enable-background="new 0 0 11.45 10.728" xml:space="preserve">
<g>
	<g>
		<g>
			<g>
				<path fill="none" stroke="#FFFFFF" stroke-linecap="round" stroke-miterlimit="10" d="M5.571,0.696
					c0.085-0.262,0.224-0.262,0.309,0l0.987,3.063C6.952,4.021,7.246,4.26,7.521,4.26h3.194c0.275,0,0.314,0.102,0.087,0.257
					L8.236,6.255C8.009,6.41,7.894,6.744,7.98,7.005l0.98,2.961c0.086,0.261-0.024,0.339-0.245,0.176l-2.588-1.91
					C5.906,8.07,5.542,8.068,5.32,8.229L2.738,10.09c-0.223,0.161-0.333,0.079-0.246-0.182l0.976-2.9
					c0.088-0.261-0.026-0.601-0.253-0.757L0.647,4.518C0.42,4.362,0.46,4.26,0.735,4.26h3.194c0.275,0,0.569-0.239,0.654-0.501
					L5.571,0.696z"/>
			</g>
		</g>
	</g>
</g>
</svg>
