<?xml version="1.0" encoding="utf-8"?>
<!-- Generator: Adobe Illustrator 16.0.0, SVG Export Plug-In . SVG Version: 6.00 Build 0)  -->
<!DOCTYPE svg PUBLIC "-//W3C//DTD SVG 1.1//EN" "http://www.w3.org/Graphics/SVG/1.1/DTD/svg11.dtd">
<svg version="1.1" id="Layer_1" xmlns="http://www.w3.org/2000/svg" xmlns:xlink="http://www.w3.org/1999/xlink" x="0px" y="0px"
	 width="7.588px" height="9.572px" viewBox="0 0 7.588 9.572" enable-background="new 0 0 7.588 9.572" xml:space="preserve">
<g>
	<g>
		<g>
			<path fill="#FFFFFF" d="M5.938,3.23V1.859c0-0.871-0.603-1.602-1.411-1.803C4.383,0.021,4.233,0,4.079,0h-0.57
				C3.132,0,2.783,0.113,2.49,0.305C1.985,0.639,1.649,1.209,1.649,1.859V3.23C1.527,3.244,1.408,3.27,1.294,3.307
				C0.544,3.547,0,4.248,0,5.076v1.197v1.441c0,1.023,0.833,1.857,1.858,1.857h3.87c1.025,0,1.859-0.834,1.859-1.857V5.076
				C7.588,4.121,6.864,3.334,5.938,3.23z M3.269,0.869C3.346,0.85,3.426,0.84,3.509,0.84h0.57c0.562,0,1.019,0.457,1.019,1.02v1.357
				H3.726H2.689h-0.2V2.186V1.859C2.489,1.379,2.822,0.977,3.269,0.869z M6.748,7.715c0,0.562-0.457,1.02-1.02,1.02h-3.87
				c-0.562,0-1.02-0.457-1.02-1.02V5.076c0-0.334,0.162-0.631,0.412-0.816c0.169-0.127,0.38-0.203,0.607-0.203H3.07h2.658
				c0.562,0,1.02,0.457,1.02,1.02V7.715z"/>
		</g>
		<path fill="#FFFFFF" d="M4.473,7.697l-0.42-1.1c0.229-0.1,0.39-0.328,0.39-0.594c0-0.359-0.29-0.65-0.648-0.65
			c-0.359,0-0.649,0.291-0.649,0.65c0,0.266,0.16,0.494,0.39,0.594l-0.42,1.1H4.473z"/>
	</g>
</g>
</svg>
