<?xml version="1.0" encoding="utf-8"?>
<!-- Generator: Adobe Illustrator 18.1.1, SVG Export Plug-In . SVG Version: 6.00 Build 0)  -->
<svg version="1.1" id="Capa_1" xmlns="http://www.w3.org/2000/svg" xmlns:xlink="http://www.w3.org/1999/xlink" x="0px" y="0px"
	 viewBox="0 0 385 336" enable-background="new 0 0 385 336" xml:space="preserve">
<rect x="-414.8" y="53.7" display="none" fill="#FFFFFF" stroke="#52B265" stroke-width="14" stroke-miterlimit="10" width="240.7" height="240.7"/>
<g display="none">
	<g display="inline">
		<polygon fill="#52B265" points="-399.7,194.3 -376.5,168.6 -315.3,223.6 -152.1,36.5 -126.1,59.2 -312.3,272.9 		"/>
		<path fill="#FFFFFF" d="M-151.6,44.9l17,14.9l-178.3,204.5l-78.4-70.5l15.1-16.8l61.3,55.1L-151.6,44.9 M-152.7,28l-7.9,9
			l-155.2,178.1l-52.2-47l-8.9-8l-8,8.9l-15.1,16.8l-8,8.9l8.9,8l78.4,70.5l9.1,8.1l8-9.2l178.3-204.5l7.9-9l-9-7.9l-17-14.9
			L-152.7,28L-152.7,28z"/>
	</g>
</g>
<g display="none">
	<polygon display="inline" fill="#E52929" points="193.3,197.5 307.4,311.6 334.5,284.5 220.4,170.4 309.5,81.3 282.3,54.2 
		193.3,143.2 104.2,54.2 77.1,81.3 166.1,170.4 77.1,259.4 104.2,286.6 	"/>
	<g display="inline">
		<polygon fill="#E52929" points="268.3,297 63.5,297 63.5,40 320.5,40 320.5,246.8 341.5,267.4 341.5,19 42.5,19 42.5,318 
			288.9,318 		"/>
	</g>
</g>
<rect x="-689.5" y="-117" display="none" fill="none" stroke="#E52929" stroke-width="14.0741" stroke-miterlimit="10" width="190" height="190"/>
<g display="none">
	<polygon display="inline" fill="#E52929" points="-594.5,7.7 -664.1,77.3 -693.8,47.6 -624.2,-22 -693.8,-91.6 -664.1,-121.3 
		-594.5,-51.7 -524.9,-121.3 -495.2,-91.6 -564.8,-22 -495.2,47.6 -524.9,77.3 	"/>
	<path display="inline" fill="#FFFFFF" d="M-524.9-112.8l21.2,21.2L-573.3-22l69.6,69.6l-21.2,21.2l-69.6-69.6l-69.6,69.6
		l-21.2-21.2l69.6-69.6l-69.6-69.6l21.2-21.2l69.6,69.6L-524.9-112.8 M-524.9-129.7l-8.5,8.5l-61.1,61.1l-61.1-61.1l-8.5-8.5
		l-8.5,8.5l-21.2,21.2l-8.5,8.5l8.5,8.5l61.1,61.1l-61.1,61.1l-8.5,8.5l8.5,8.5l21.2,21.2l8.5,8.5l8.5-8.5l61.1-61.1l61.1,61.1
		l8.5,8.5l8.5-8.5l21.2-21.2l8.5-8.5l-8.5-8.5L-556.3-22l61.1-61.1l8.5-8.5l-8.5-8.5l-21.2-21.2L-524.9-129.7L-524.9-129.7z"/>
</g>
<g>
	<linearGradient id="SVGID_1_" gradientUnits="userSpaceOnUse" x1="2.1438" y1="168.6488" x2="382.8562" y2="168.6488">
		<stop  offset="0" style="stop-color:#39B54A"/>
		<stop  offset="1" style="stop-color:#2C8238"/>
	</linearGradient>
	<polygon fill="url(#SVGID_1_)" points="138.9,242.7 34.1,137.9 2.1,169.9 106.9,274.7 138.9,306.6 170.9,274.7 382.9,62.6 
		350.9,30.7 	"/>
	<linearGradient id="SVGID_2_" gradientUnits="userSpaceOnUse" x1="140.6111" y1="222.8795" x2="353.5" y2="222.8795">
		<stop  offset="0" style="stop-color:#39B54A"/>
		<stop  offset="1" style="stop-color:#2C8238"/>
	</linearGradient>
	<polygon fill="url(#SVGID_2_)" points="332.5,139.1 332.5,308 162.9,308 151.7,318.6 140.6,329 353.5,329 353.5,116.8 	"/>
	<linearGradient id="SVGID_3_" gradientUnits="userSpaceOnUse" x1="31.4185" y1="69.1215" x2="349.1816" y2="69.1215">
		<stop  offset="0" style="stop-color:#39B54A"/>
		<stop  offset="1" style="stop-color:#2C8238"/>
	</linearGradient>
	<polyline fill="url(#SVGID_3_)" points="31.4,109.2 46.8,125.1 52.5,131.2 52.5,28 326.9,28 338.1,17.4 349.2,7 31.5,7 	"/>
	<linearGradient id="SVGID_4_" gradientUnits="userSpaceOnUse" x1="31.5" y1="276.4861" x2="137.1766" y2="276.4861">
		<stop  offset="0" style="stop-color:#39B54A"/>
		<stop  offset="1" style="stop-color:#2C8238"/>
	</linearGradient>
	<polygon fill="url(#SVGID_4_)" points="126.1,318.6 114.9,308 52.5,308 52.5,246.3 31.5,224 31.5,329 137.2,329 	"/>
</g>
</svg>
