<?xml version="1.0" encoding="utf-8"?>
<!-- Generator: Adobe Illustrator 18.1.1, SVG Export Plug-In . SVG Version: 6.00 Build 0)  -->
<svg version="1.1" id="Layer_1" xmlns="http://www.w3.org/2000/svg" xmlns:xlink="http://www.w3.org/1999/xlink" x="0px" y="0px"
	 viewBox="-144 146.4 9.6 9.6" enable-background="new -144 146.4 9.6 9.6" xml:space="preserve">
<g>
	<g>
		<g>
			<g>
				<g>
					<g>
						<path fill="#070707" d="M-134.6,147.9l-1.3-1.3c-0.2-0.2-0.4-0.2-0.6-0.2c-0.2,0-0.4,0.1-0.6,0.2l-0.9,0.9
							c-0.2-0.1-0.4,0-0.5,0.1l-0.4,0.4c-0.1,0.1-0.2,0.4-0.1,0.6l-4.1,4.1c0,0,0,0,0,0v0c0,0,0,0,0,0l-0.7,2.2l-0.1,0.2l-0.1,0.2
							c0,0,0,0,0,0c0,0.1,0,0.2,0,0.3c0,0,0,0.1,0,0.1c0.1,0.1,0.2,0.1,0.3,0.1h0.1c0,0,0,0,0,0l0.3-0.1l2.4-0.8c0,0,0.1,0,0.1-0.1
							l4.2-4.2c0.1,0,0.1,0,0.2,0c0.1,0,0.3-0.1,0.3-0.1l0.4-0.4c0.1-0.1,0.2-0.3,0.1-0.5l0.9-0.9
							C-134.3,148.7-134.3,148.2-134.6,147.9L-134.6,147.9z M-140.8,154.5l-0.7-0.7l3.9-4l0.7,0.7L-140.8,154.5z M-137.9,149.5
							l-3.9,4l-0.7-0.7l3.9-3.9L-137.9,149.5z M-143,155.3l-0.3-0.3l0.6-1.7l1.5,1.5L-143,155.3z M-136.2,150.4
							C-136.3,150.4-136.3,150.3-136.2,150.4l-2.1-2.1c0,0,0,0-0.1,0l0.3-0.3l0,0l2.1,2.1c0,0,0,0,0,0L-136.2,150.4z M-135,148.7
							l-0.8,0.8l-1.7-1.7l0.8-0.8c0.1-0.1,0.3-0.1,0.4,0l1.3,1.3C-134.9,148.4-134.9,148.6-135,148.7L-135,148.7z"/>
					</g>
				</g>
			</g>
		</g>
	</g>
</g>
</svg>
