<?xml version="1.0" encoding="utf-8"?>
<!-- Generator: Adobe Illustrator 16.0.0, SVG Export Plug-In . SVG Version: 6.00 Build 0)  -->
<!DOCTYPE svg PUBLIC "-//W3C//DTD SVG 1.1//EN" "http://www.w3.org/Graphics/SVG/1.1/DTD/svg11.dtd">
<svg version="1.1" id="Layer_1" xmlns="http://www.w3.org/2000/svg" xmlns:xlink="http://www.w3.org/1999/xlink" x="0px" y="0px"
	 width="10.654px" height="11.979px" viewBox="0 0 10.654 11.979" enable-background="new 0 0 10.654 11.979" xml:space="preserve">
<g>
	<g>
		<g>
			<g>
				<g>
					<g>
						<path fill="#4D4D4D" d="M10.322,1.724H7.829V1.317C7.829,0.591,7.237,0,6.512,0H4.143C3.416,0,2.824,0.591,2.824,1.317v0.407
							H0.332C0.147,1.724,0,1.871,0,2.056c0,0.186,0.147,0.333,0.332,0.333h0.602v7.813c0,0.979,0.8,1.776,1.777,1.776h5.231
							c0.979,0,1.778-0.798,1.778-1.776V2.388h0.602c0.184,0,0.332-0.146,0.332-0.333C10.654,1.871,10.506,1.724,10.322,1.724
							L10.322,1.724z M3.49,1.317c0-0.359,0.293-0.652,0.652-0.652h2.369c0.358,0,0.651,0.293,0.651,0.652v0.407H3.49V1.317z
							 M9.056,10.201c0,0.612-0.5,1.112-1.113,1.112H2.711c-0.611,0-1.112-0.5-1.112-1.112V2.388h7.461v7.813H9.056z"/>
						<path fill="#4D4D4D" d="M5.327,10.122c0.186,0,0.333-0.148,0.333-0.333V3.914c0-0.186-0.147-0.333-0.333-0.333
							c-0.185,0-0.333,0.147-0.333,0.333v5.874C4.994,9.971,5.143,10.122,5.327,10.122L5.327,10.122z"/>
						<path fill="#4D4D4D" d="M3.157,9.755c0.185,0,0.333-0.148,0.333-0.333V4.277c0-0.184-0.148-0.332-0.333-0.332
							S2.824,4.093,2.824,4.277v5.146C2.824,9.607,2.975,9.755,3.157,9.755L3.157,9.755z"/>
						<path fill="#4D4D4D" d="M7.497,9.755c0.186,0,0.332-0.148,0.332-0.333V4.277c0-0.184-0.146-0.332-0.332-0.332
							c-0.185,0-0.333,0.148-0.333,0.332v5.146C7.164,9.607,7.312,9.755,7.497,9.755L7.497,9.755z"/>
					</g>
				</g>
			</g>
		</g>
	</g>
</g>
</svg>
