<?xml version="1.0" encoding="utf-8"?>
<!-- Generator: Adobe Illustrator 18.1.1, SVG Export Plug-In . SVG Version: 6.00 Build 0)  -->
<svg version="1.1" id="Layer_1" xmlns="http://www.w3.org/2000/svg" xmlns:xlink="http://www.w3.org/1999/xlink" x="0px" y="0px"
	 viewBox="-136 143.9 25.8 15.1" enable-background="new -136 143.9 25.8 15.1" xml:space="preserve">
<rect x="-136" y="143.9" fill="#FFFFFF" width="25.8" height="0.7"/>
<rect x="-136" y="145.8" fill="#FFFFFF" width="25.8" height="0.7"/>
<rect x="-136" y="156.4" fill="#FFFFFF" width="25.8" height="0.7"/>
<rect x="-136" y="158.3" fill="#FFFFFF" width="25.8" height="0.7"/>
<rect x="-134.4" y="143.9" fill="#FFFFFF" width="0.7" height="13.5"/>
<rect x="-132.4" y="143.9" fill="#FFFFFF" width="0.7" height="2.3"/>
<rect x="-130.4" y="143.9" fill="#FFFFFF" width="0.7" height="2.3"/>
<rect x="-128.4" y="143.9" fill="#FFFFFF" width="0.7" height="2.3"/>
<rect x="-126.4" y="143.9" fill="#FFFFFF" width="0.7" height="2.3"/>
<rect x="-124.4" y="143.9" fill="#FFFFFF" width="0.7" height="2.3"/>
<rect x="-122.4" y="143.9" fill="#FFFFFF" width="0.7" height="2.3"/>
<rect x="-120.4" y="143.9" fill="#FFFFFF" width="0.7" height="2.3"/>
<rect x="-118.4" y="143.9" fill="#FFFFFF" width="0.7" height="2.3"/>
<rect x="-116.4" y="143.9" fill="#FFFFFF" width="0.7" height="2.3"/>
<rect x="-114.4" y="143.9" fill="#FFFFFF" width="0.7" height="2.3"/>
<rect x="-112.4" y="143.9" fill="#FFFFFF" width="0.7" height="13.3"/>
<rect x="-134.4" y="156.7" fill="#FFFFFF" width="0.7" height="2.3"/>
<rect x="-132.4" y="156.7" fill="#FFFFFF" width="0.7" height="2.3"/>
<rect x="-130.4" y="156.7" fill="#FFFFFF" width="0.7" height="2.3"/>
<rect x="-128.4" y="156.7" fill="#FFFFFF" width="0.7" height="2.3"/>
<rect x="-126.4" y="156.7" fill="#FFFFFF" width="0.7" height="2.3"/>
<rect x="-124.4" y="156.7" fill="#FFFFFF" width="0.7" height="2.3"/>
<rect x="-122.4" y="156.7" fill="#FFFFFF" width="0.7" height="2.3"/>
<rect x="-120.4" y="156.7" fill="#FFFFFF" width="0.7" height="2.3"/>
<rect x="-118.4" y="156.7" fill="#FFFFFF" width="0.7" height="2.3"/>
<rect x="-116.4" y="156.7" fill="#FFFFFF" width="0.7" height="2.3"/>
<rect x="-114.4" y="156.7" fill="#FFFFFF" width="0.7" height="2.3"/>
<rect x="-112.4" y="156.7" fill="#FFFFFF" width="0.7" height="2.3"/>
<polygon fill="#FFFFFF" points="-126,148.1 -120.2,151.5 -126,154.9 "/>
</svg>
