<?xml version="1.0" encoding="utf-8"?>
<!-- Generator: Adobe Illustrator 16.0.0, SVG Export Plug-In . SVG Version: 6.00 Build 0)  -->
<!DOCTYPE svg PUBLIC "-//W3C//DTD SVG 1.1//EN" "http://www.w3.org/Graphics/SVG/1.1/DTD/svg11.dtd">
<svg version="1.1" id="Layer_1" xmlns="http://www.w3.org/2000/svg" xmlns:xlink="http://www.w3.org/1999/xlink" x="0px" y="0px"
	 width="9.588px" height="9.625px" viewBox="0 0 9.588 9.625" enable-background="new 0 0 9.588 9.625" xml:space="preserve">
<g>
	<g>
		<g>
			<g>
				<g>
					<g>
						<path fill="#4D4D4D" d="M9.353,1.518L8.071,0.239C7.913,0.078,7.716,0,7.505,0c-0.21,0-0.422,0.08-0.566,0.238L6.081,1.096
							C5.909,1.043,5.713,1.082,5.58,1.201L5.211,1.57C5.064,1.715,5.039,1.939,5.117,2.125L0.975,6.271
							C0.961,6.285,0.948,6.299,0.948,6.311v0.015C0.935,6.338,0.935,6.352,0.921,6.363L0.184,8.609l-0.08,0.236L0.025,9.084
							c0,0.014,0,0.027-0.015,0.027c-0.026,0.131,0,0.236,0.04,0.303C0.064,9.441,0.078,9.467,0.089,9.48
							c0.08,0.092,0.199,0.145,0.331,0.145h0.091c0.014,0,0.026,0,0.026-0.014l0.331-0.105l2.374-0.777
							C3.28,8.715,3.308,8.701,3.336,8.674L7.49,4.516c0.053,0.027,0.104,0.027,0.172,0.027c0.132,0,0.25-0.053,0.343-0.145
							l0.369-0.369c0.145-0.146,0.169-0.346,0.105-0.516l0.855-0.859C9.669,2.352,9.669,1.836,9.353,1.518L9.353,1.518z
							 M3.191,8.146L2.52,7.475l3.943-3.96l0.675,0.672L3.191,8.146z M6.12,3.17L2.177,7.131L1.503,6.443l3.945-3.947L6.12,3.17z
							 M1.027,8.939l-0.33-0.33l0.567-1.717l1.479,1.479L1.027,8.939z M7.755,3.988C7.742,3.975,7.742,3.961,7.729,3.961L5.685,1.9
							C5.657,1.873,5.646,1.863,5.618,1.85l0.29-0.305l0.026,0.027l2.071,2.074c0.015,0.014,0.026,0.025,0.04,0.025L7.755,3.988z
							 M9.009,2.324l-0.83,0.832L6.449,1.414L7.28,0.582c0.119-0.117,0.33-0.117,0.447,0l1.28,1.281
							C9.128,1.994,9.128,2.191,9.009,2.324L9.009,2.324z"/>
					</g>
				</g>
			</g>
		</g>
	</g>
</g>
</svg>
