<?xml version="1.0" encoding="utf-8"?>
<!-- Generator: Adobe Illustrator 18.1.1, SVG Export Plug-In . SVG Version: 6.00 Build 0)  -->
<svg version="1.1" id="Capa_1" xmlns="http://www.w3.org/2000/svg" xmlns:xlink="http://www.w3.org/1999/xlink" x="0px" y="0px"
	 viewBox="0 0 306 308" enable-background="new 0 0 306 308" xml:space="preserve">
<rect x="-454.3" y="39.7" display="none" fill="#FFFFFF" stroke="#52B265" stroke-width="14" stroke-miterlimit="10" width="240.7" height="240.7"/>
<g display="none">
	<g display="inline">
		<polygon fill="#52B265" points="-439.2,180.3 -416,154.6 -354.8,209.6 -191.6,22.5 -165.6,45.2 -351.8,258.9 		"/>
		<path fill="#FFFFFF" d="M-191.1,30.9l17,14.9l-178.3,204.5l-78.4-70.5l15.1-16.8l61.3,55.1L-191.1,30.9 M-192.2,14l-7.9,9
			l-155.2,178.1l-52.2-47l-8.9-8l-8,8.9l-15.1,16.8l-8,8.9l8.9,8l78.4,70.5l9.1,8.1l8-9.2L-165,53.7l7.9-9l-9-7.9l-17-14.9
			L-192.2,14L-192.2,14z"/>
	</g>
</g>
<g>
	<polygon fill="#E52929" points="153.8,183.5 267.9,297.6 295,270.5 180.9,156.4 270,67.3 242.8,40.2 153.8,129.2 64.7,40.2 
		37.6,67.3 126.6,156.4 37.6,245.4 64.7,272.6 	"/>
	<g>
		<polygon fill="#E52929" points="228.8,283 24,283 24,26 281,26 281,232.8 302,253.4 302,5 3,5 3,304 249.4,304 		"/>
	</g>
</g>
<rect x="-729" y="-131" display="none" fill="none" stroke="#E52929" stroke-width="14.0741" stroke-miterlimit="10" width="190" height="190"/>
<g display="none">
	<polygon display="inline" fill="#E52929" points="-634,-6.3 -703.6,63.3 -733.3,33.6 -663.7,-36 -733.3,-105.6 -703.6,-135.3 
		-634,-65.7 -564.4,-135.3 -534.7,-105.6 -604.3,-36 -534.7,33.6 -564.4,63.3 	"/>
	<path display="inline" fill="#FFFFFF" d="M-564.4-126.8l21.2,21.2L-612.8-36l69.6,69.6l-21.2,21.2L-634-14.8l-69.6,69.6l-21.2-21.2
		l69.6-69.6l-69.6-69.6l21.2-21.2l69.6,69.6L-564.4-126.8 M-564.4-143.7l-8.5,8.5L-634-74.2l-61.1-61.1l-8.5-8.5l-8.5,8.5
		l-21.2,21.2l-8.5,8.5l8.5,8.5l61.1,61.1l-61.1,61.1l-8.5,8.5l8.5,8.5l21.2,21.2l8.5,8.5l8.5-8.5L-634,2.2l61.1,61.1l8.5,8.5
		l8.5-8.5l21.2-21.2l8.5-8.5l-8.5-8.5L-595.8-36l61.1-61.1l8.5-8.5l-8.5-8.5l-21.2-21.2L-564.4-143.7L-564.4-143.7z"/>
</g>
<linearGradient id="SVGID_1_" gradientUnits="userSpaceOnUse" x1="-37.3562" y1="128.6488" x2="343.3562" y2="128.6488">
	<stop  offset="0" style="stop-color:#39B54A"/>
	<stop  offset="1" style="stop-color:#2C8238"/>
</linearGradient>
<polygon display="none" fill="url(#SVGID_1_)" points="99.4,202.7 -5.4,97.9 -37.4,129.9 67.4,234.7 99.4,266.6 131.4,234.7 
	343.4,22.6 311.4,-9.3 "/>
<rect x="9.5" y="71" display="none" fill="none" stroke="#009245" stroke-width="13.2063" stroke-miterlimit="10" width="208" height="208"/>
</svg>
