<?xml version="1.0" encoding="utf-8"?>
<!-- Generator: Adobe Illustrator 16.0.0, SVG Export Plug-In . SVG Version: 6.00 Build 0)  -->
<!DOCTYPE svg PUBLIC "-//W3C//DTD SVG 1.1//EN" "http://www.w3.org/Graphics/SVG/1.1/DTD/svg11.dtd">
<svg version="1.1" id="Layer_1" xmlns="http://www.w3.org/2000/svg" xmlns:xlink="http://www.w3.org/1999/xlink" x="0px" y="0px"
	 width="10.654px" height="11.979px" viewBox="0 0 10.654 11.979" enable-background="new 0 0 10.654 11.979" xml:space="preserve">
<g>
	<g>
		<g>
			<g>
				<g>
					<g>
						<path fill="#FFFFFF" d="M10.322,1.724H7.829V1.317C7.829,0.591,7.237,0,6.512,0H4.143C3.416,0,2.824,0.591,2.824,1.317v0.407
							H0.332C0.147,1.724,0,1.871,0,2.056c0,0.185,0.147,0.333,0.332,0.333h0.601v7.813c0,0.979,0.8,1.777,1.778,1.777h5.231
							c0.979,0,1.778-0.798,1.778-1.777V2.388h0.602c0.184,0,0.332-0.147,0.332-0.333C10.654,1.871,10.506,1.724,10.322,1.724
							L10.322,1.724z M3.49,1.317c0-0.36,0.293-0.653,0.652-0.653h2.369c0.359,0,0.652,0.293,0.652,0.653v0.407H3.49V1.317z
							 M9.056,10.201c0,0.613-0.5,1.113-1.113,1.113H2.711c-0.612,0-1.113-0.5-1.113-1.113V2.388h7.461v7.813H9.056z M9.056,10.201"
							/>
						<path fill="#FFFFFF" d="M5.327,10.122c0.185,0,0.333-0.148,0.333-0.333V3.914c0-0.185-0.148-0.333-0.333-0.333
							S4.994,3.729,4.994,3.914v5.874C4.994,9.971,5.143,10.122,5.327,10.122L5.327,10.122z M5.327,10.122"/>
						<path fill="#FFFFFF" d="M3.157,9.755c0.185,0,0.333-0.148,0.333-0.333V4.277c0-0.184-0.148-0.332-0.333-0.332
							S2.824,4.093,2.824,4.277v5.145C2.824,9.607,2.975,9.755,3.157,9.755L3.157,9.755z M3.157,9.755"/>
						<path fill="#FFFFFF" d="M7.497,9.755c0.185,0,0.332-0.148,0.332-0.333V4.277c0-0.184-0.147-0.332-0.332-0.332
							S7.164,4.093,7.164,4.277v5.145C7.164,9.607,7.312,9.755,7.497,9.755L7.497,9.755z M7.497,9.755"/>
					</g>
				</g>
			</g>
		</g>
	</g>
</g>
</svg>
