<?xml version="1.0" encoding="utf-8"?>
<!-- Generator: Adobe Illustrator 16.0.0, SVG Export Plug-In . SVG Version: 6.00 Build 0)  -->
<!DOCTYPE svg PUBLIC "-//W3C//DTD SVG 1.1//EN" "http://www.w3.org/Graphics/SVG/1.1/DTD/svg11.dtd">
<svg version="1.1" id="Layer_1" xmlns="http://www.w3.org/2000/svg" xmlns:xlink="http://www.w3.org/1999/xlink" x="0px" y="0px"
	 width="13.082px" height="13.082px" viewBox="0 0 13.082 13.082" enable-background="new 0 0 13.082 13.082" xml:space="preserve">
<g>
	<g>
		<polygon fill="#FFFFFF" points="5.469,9.347 2.992,6.872 3.652,6.21 5.469,8.025 9.43,4.065 10.089,4.727 		"/>
	</g>
	<g>
		<path fill="#FFFFFF" d="M6.541,13.082C2.936,13.082,0,10.148,0,6.541C0,2.934,2.936,0,6.541,0c3.607,0,6.541,2.934,6.541,6.541
			C13.082,10.148,10.148,13.082,6.541,13.082z M6.541,0.934c-3.091,0-5.605,2.515-5.605,5.606c0,3.092,2.515,5.607,5.605,5.607
			c3.092,0,5.607-2.515,5.607-5.607C12.148,3.449,9.633,0.934,6.541,0.934z"/>
	</g>
</g>
</svg>
