<?xml version="1.0" encoding="utf-8"?>
<!-- Generator: Adobe Illustrator 16.0.0, SVG Export Plug-In . SVG Version: 6.00 Build 0)  -->
<!DOCTYPE svg PUBLIC "-//W3C//DTD SVG 1.1//EN" "http://www.w3.org/Graphics/SVG/1.1/DTD/svg11.dtd">
<svg version="1.1" id="Layer_1" xmlns="http://www.w3.org/2000/svg" xmlns:xlink="http://www.w3.org/1999/xlink" x="0px" y="0px"
	 width="9.604px" height="10.458px" viewBox="0 0 9.604 10.458" enable-background="new 0 0 9.604 10.458" xml:space="preserve">
<g>
	<g>
		<g>
			<g>
				<g>
					<g>
						<path fill="#FFFFFF" d="M7.229,8.367l0.38-0.38v2.027c0,0.245-0.199,0.444-0.443,0.444H0.445C0.201,10.458,0,10.259,0,10.014
							V1.138c0-0.246,0.201-0.444,0.445-0.444h1.42L1.813,0.925C1.81,0.945,1.808,0.962,1.808,0.979v1.015
							c0,0.141,0.113,0.254,0.254,0.254h3.486c0.14,0,0.255-0.113,0.255-0.254V0.979c0-0.017-0.003-0.034-0.005-0.054L5.745,0.694
							h1.421c0.244,0,0.443,0.198,0.443,0.444v3.014l-0.38,0.381V1.138c0-0.036-0.029-0.063-0.064-0.063h-0.98v0.918
							c0,0.349-0.286,0.635-0.637,0.635H2.062c-0.35,0-0.635-0.286-0.635-0.635V1.075H0.445c-0.034,0-0.064,0.027-0.064,0.063v8.876
							c0,0.036,0.03,0.064,0.064,0.064h6.721c0.034,0,0.063-0.028,0.063-0.064V8.367z M2.271,2.009h3.07
							c0.121,0,0.222-0.099,0.222-0.222V0.892c0-0.123-0.101-0.221-0.222-0.221H4.503C4.503,0.3,4.188,0,3.803,0
							C3.413,0,3.1,0.3,3.1,0.671H2.271c-0.123,0-0.224,0.099-0.224,0.221v0.895C2.047,1.909,2.147,2.009,2.271,2.009L2.271,2.009z
							 M3.278,5.986L2.077,4.784L1.583,5.278l1.695,1.696l2.75-2.75L5.535,3.731L3.278,5.986z M9.52,4.966L8.654,4.103
							C8.527,3.976,8.304,3.995,8.153,4.144L7.679,4.619l1.324,1.325l0.475-0.475C9.628,5.318,9.646,5.093,9.52,4.966L9.52,4.966z
							 M7.458,4.84l1.323,1.324L5.624,9.322C5.609,9.337,5.569,9.376,5.512,9.391C5.505,9.394,5.5,9.397,5.493,9.398L3.844,9.924
							C3.798,9.939,3.752,9.929,3.722,9.899c-0.029-0.03-0.038-0.078-0.023-0.123l0.525-1.648c0.001-0.007,0.004-0.012,0.006-0.02
							c0.016-0.057,0.055-0.097,0.069-0.11L7.458,4.84z M5.216,9.22L4.401,8.405l-0.22,0.687L4.53,9.439L5.216,9.22z M7.406,5.365
							c-0.047-0.045-0.123-0.045-0.17,0L4.775,7.827c-0.048,0.047-0.048,0.125,0,0.171c0.047,0.047,0.122,0.047,0.169,0l2.462-2.462
							C7.452,5.489,7.452,5.414,7.406,5.365L7.406,5.365z M7.406,5.365"/>
					</g>
				</g>
			</g>
		</g>
	</g>
</g>
</svg>
