<?xml version="1.0" encoding="utf-8"?>
<!-- Generator: Adobe Illustrator 16.0.0, SVG Export Plug-In . SVG Version: 6.00 Build 0)  -->
<!DOCTYPE svg PUBLIC "-//W3C//DTD SVG 1.1//EN" "http://www.w3.org/Graphics/SVG/1.1/DTD/svg11.dtd">
<svg version="1.1" id="Layer_1" xmlns="http://www.w3.org/2000/svg" xmlns:xlink="http://www.w3.org/1999/xlink" x="0px" y="0px"
	 width="19.954px" height="19.946px" viewBox="0 0 19.954 19.946" enable-background="new 0 0 19.954 19.946" xml:space="preserve">
<g>
	<g>
		<g>
			<path fill="#FFFFFF" d="M19.869,12.435c-0.115-0.274-0.328-0.486-0.602-0.602l-1.053-0.43c0.168-0.949,0.168-1.91,0-2.856
				l1.047-0.433c0.275-0.115,0.488-0.328,0.598-0.602c0.115-0.274,0.115-0.573,0-0.847l-0.557-1.343
				C19.131,4.905,18.73,4.64,18.281,4.64c-0.148,0-0.287,0.029-0.426,0.086L16.809,5.16c-0.553-0.785-1.232-1.466-2.021-2.021
				l0.434-1.047c0.113-0.275,0.113-0.574,0-0.848c-0.115-0.274-0.328-0.486-0.602-0.602l-1.33-0.557C13.154,0.029,13.01,0,12.863,0
				c-0.449,0-0.852,0.271-1.021,0.684L11.406,1.73c-0.945-0.163-1.914-0.163-2.855,0L8.113,0.684C7.941,0.267,7.541,0,7.09,0
				C6.943,0,6.805,0.029,6.664,0.086L5.322,0.643C4.758,0.877,4.488,1.526,4.721,2.092l0.434,1.047
				C4.369,3.69,3.689,4.37,3.133,5.16L2.086,4.726C1.951,4.669,1.809,4.64,1.66,4.64c-0.449,0-0.85,0.271-1.021,0.684L0.09,6.657
				c-0.115,0.274-0.115,0.572,0,0.847c0.113,0.275,0.326,0.487,0.602,0.603L1.734,8.54c-0.168,0.948-0.168,1.91,0,2.854
				l-1.047,0.438c-0.275,0.115-0.486,0.327-0.602,0.602s-0.115,0.572,0,0.848l0.557,1.342c0.172,0.416,0.572,0.683,1.021,0.683
				c0.148,0,0.287-0.028,0.426-0.086l1.047-0.433c0.553,0.785,1.232,1.465,2.021,2.021l-0.434,1.048
				c-0.232,0.563,0.037,1.214,0.598,1.448l1.342,0.556c0.135,0.058,0.279,0.086,0.426,0.086c0.451,0,0.852-0.27,1.023-0.683
				l0.434-1.048c0.945,0.164,1.914,0.164,2.855,0l0.434,1.048c0.172,0.417,0.574,0.683,1.023,0.683c0.146,0,0.287-0.028,0.426-0.086
				l1.342-0.556c0.564-0.234,0.834-0.885,0.602-1.448l-0.434-1.048c0.785-0.553,1.465-1.231,2.021-2.021l1.047,0.433
				c0.135,0.058,0.279,0.086,0.426,0.086c0.449,0,0.852-0.27,1.023-0.683l0.557-1.342C19.982,13.007,19.982,12.709,19.869,12.435
				L19.869,12.435z M19.41,13.093l-0.557,1.343c-0.094,0.233-0.318,0.38-0.568,0.38c-0.082,0-0.16-0.016-0.238-0.048l-1.23-0.513
				c-0.107-0.045-0.234-0.008-0.299,0.09c-0.576,0.864-1.305,1.592-2.164,2.166c-0.1,0.064-0.135,0.188-0.092,0.298l0.512,1.231
				c0.133,0.314-0.02,0.676-0.334,0.807l-1.344,0.556c-0.072,0.033-0.154,0.049-0.236,0.049c-0.25,0-0.475-0.151-0.568-0.381
				l-0.512-1.231c-0.037-0.093-0.131-0.15-0.225-0.15c-0.018,0-0.033,0-0.051,0.004c-1.006,0.201-2.053,0.201-3.059,0
				c-0.115-0.025-0.23,0.037-0.275,0.146L7.658,19.07c-0.094,0.234-0.318,0.381-0.568,0.381c-0.082,0-0.158-0.016-0.236-0.049
				L5.512,18.85c-0.316-0.131-0.463-0.489-0.336-0.806l0.512-1.231c0.045-0.106,0.008-0.233-0.09-0.299
				c-0.863-0.577-1.592-1.305-2.164-2.164c-0.066-0.098-0.189-0.134-0.301-0.09l-1.23,0.511c-0.074,0.033-0.156,0.05-0.238,0.05
				c-0.248,0-0.475-0.151-0.568-0.382l-0.557-1.341c-0.061-0.151-0.061-0.319,0-0.471c0.062-0.151,0.182-0.27,0.336-0.335
				l1.232-0.512c0.105-0.045,0.168-0.16,0.146-0.273c-0.199-1.017-0.199-2.047,0-3.062c0.025-0.114-0.037-0.229-0.146-0.274
				L0.875,7.659c-0.15-0.061-0.27-0.18-0.336-0.335c-0.061-0.151-0.061-0.319,0-0.471l0.557-1.347
				c0.094-0.232,0.32-0.379,0.568-0.379c0.082,0,0.16,0.015,0.238,0.048l1.23,0.512c0.107,0.045,0.234,0.009,0.301-0.09
				C4.01,4.733,4.738,4.007,5.598,3.433c0.098-0.065,0.135-0.188,0.09-0.297L5.176,1.902c-0.131-0.314,0.02-0.675,0.336-0.806
				L6.854,0.54C6.926,0.508,7.008,0.491,7.09,0.491c0.25,0,0.475,0.151,0.568,0.38L8.17,2.104C8.215,2.21,8.33,2.275,8.445,2.251
				c1.006-0.2,2.053-0.2,3.059,0c0.115,0.024,0.23-0.037,0.275-0.147l0.512-1.232c0.094-0.231,0.318-0.38,0.568-0.38
				c0.082,0,0.16,0.017,0.236,0.049l1.344,0.553c0.15,0.062,0.27,0.181,0.334,0.336c0.062,0.15,0.062,0.318,0,0.471l-0.512,1.231
				c-0.043,0.105-0.008,0.233,0.092,0.298c0.863,0.578,1.592,1.305,2.164,2.164c0.064,0.099,0.188,0.136,0.299,0.091l1.23-0.512
				c0.074-0.032,0.156-0.049,0.238-0.049c0.25,0,0.475,0.151,0.568,0.381l0.557,1.342c0.062,0.152,0.062,0.318,0,0.47
				s-0.18,0.271-0.336,0.336l-1.23,0.516c-0.107,0.045-0.168,0.159-0.148,0.274c0.201,1.015,0.201,2.046,0,3.061
				c-0.023,0.114,0.037,0.229,0.148,0.274l1.23,0.511c0.152,0.062,0.27,0.181,0.336,0.336C19.473,12.774,19.473,12.941,19.41,13.093
				L19.41,13.093z M19.41,13.093"/>
		</g>
		<path fill="#FFFFFF" d="M13.416,8.548c-0.578-1.398-1.928-2.303-3.441-2.303c-0.488,0-0.969,0.096-1.424,0.285
			C6.652,7.316,5.748,9.5,6.533,11.395c0.58,1.399,1.93,2.304,3.441,2.304c0.49,0,0.969-0.097,1.424-0.285
			C13.297,12.626,14.201,10.442,13.416,8.548L13.416,8.548z M11.229,13.002c-0.4,0.166-0.824,0.251-1.254,0.251
			c-1.33,0-2.521-0.793-3.033-2.025C6.248,9.557,7.045,7.636,8.717,6.946c0.4-0.167,0.824-0.253,1.254-0.253
			c1.332,0,2.521,0.794,3.033,2.025C13.697,10.388,12.9,12.311,11.229,13.002L11.229,13.002z M11.229,13.002"/>
	</g>
</g>
</svg>
