<?xml version="1.0" encoding="utf-8"?>
<!-- Generator: Adobe Illustrator 16.0.0, SVG Export Plug-In . SVG Version: 6.00 Build 0)  -->
<!DOCTYPE svg PUBLIC "-//W3C//DTD SVG 1.1//EN" "http://www.w3.org/Graphics/SVG/1.1/DTD/svg11.dtd">
<svg version="1.1" id="Capa_1" xmlns="http://www.w3.org/2000/svg" xmlns:xlink="http://www.w3.org/1999/xlink" x="0px" y="0px"
	 width="17.101px" height="20.374px" viewBox="0 0 17.101 20.374" enable-background="new 0 0 17.101 20.374" xml:space="preserve">
<g>
	<path fill="#FFFFFF" d="M7.646,13.959c-0.13,0.131-0.13,0.344,0,0.475c0.064,0.064,0.15,0.098,0.236,0.098s0.17-0.033,0.235-0.098
		l4.009-4.01c0.03-0.027,0.057-0.066,0.071-0.107c0.034-0.082,0.034-0.175,0-0.257c-0.017-0.041-0.041-0.078-0.071-0.109
		L8.119,5.942c-0.13-0.132-0.341-0.132-0.473,0c-0.13,0.129-0.13,0.342,0,0.472l3.438,3.438H0.868c-0.184,0-0.334,0.15-0.334,0.335
		c0,0.186,0.15,0.334,0.334,0.334h10.217L7.646,13.959z"/>
	<path fill="#FFFFFF" d="M16.235,0.833H3.875c-0.185,0-0.335,0.15-0.335,0.335v7.015c0,0.186,0.15,0.332,0.335,0.332
		c0.185,0,0.335-0.147,0.335-0.332V1.501H15.9v17.372H4.21v-6.682c0-0.186-0.15-0.336-0.335-0.336c-0.185,0-0.335,0.15-0.335,0.336
		v7.016c0,0.184,0.15,0.334,0.335,0.334h12.36c0.184,0,0.332-0.15,0.332-0.334V1.168C16.567,0.983,16.419,0.833,16.235,0.833
		L16.235,0.833z"/>
</g>
</svg>
