<?xml version="1.0" encoding="utf-8"?>
<!-- Generator: Adobe Illustrator 18.1.1, SVG Export Plug-In . SVG Version: 6.00 Build 0)  -->
<svg version="1.1" id="Capa_1" xmlns="http://www.w3.org/2000/svg" xmlns:xlink="http://www.w3.org/1999/xlink" x="0px" y="0px"
	 viewBox="-140 141.118 18.882 18.882" enable-background="new -140 141.118 18.882 18.882" xml:space="preserve">
<rect x="-139" y="142.118" fill="none" stroke="#ECC109" stroke-miterlimit="10" width="17.264" height="17.264"/>
<g>
	<path fill="#FFFFFF" d="M-127.807,148.774c0,0.391-0.065,0.739-0.194,1.046c-0.131,0.307-0.304,0.575-0.52,0.808
		c-0.217,0.232-0.461,0.445-0.734,0.643c-0.273,0.195-0.563,0.387-0.867,0.569v1.368h-1.074v-1.83c0.224-0.137,0.483-0.3,0.782-0.49
		c0.297-0.188,0.53-0.366,0.698-0.528c0.216-0.204,0.384-0.428,0.505-0.671c0.119-0.241,0.181-0.517,0.181-0.824
		c0-0.45-0.144-0.788-0.427-1.012c-0.284-0.223-0.653-0.335-1.11-0.335c-0.398,0-0.776,0.066-1.132,0.2
		c-0.353,0.136-0.64,0.274-0.859,0.418h-0.066v-1.223c0.268-0.108,0.605-0.206,1.014-0.291c0.407-0.086,0.794-0.129,1.157-0.129
		c0.819,0,1.467,0.209,1.938,0.626C-128.042,147.537-127.807,148.09-127.807,148.774z M-130.026,155.608h-1.225v-1.267h1.226v1.267
		H-130.026z"/>
</g>
</svg>
