<?xml version="1.0" encoding="utf-8"?>
<!-- Generator: Adobe Illustrator 16.0.0, SVG Export Plug-In . SVG Version: 6.00 Build 0)  -->
<!DOCTYPE svg PUBLIC "-//W3C//DTD SVG 1.1//EN" "http://www.w3.org/Graphics/SVG/1.1/DTD/svg11.dtd">
<svg version="1.1" id="Layer_1" xmlns="http://www.w3.org/2000/svg" xmlns:xlink="http://www.w3.org/1999/xlink" x="0px" y="0px"
	 width="15.744px" height="20.536px" viewBox="0 0 15.744 20.536" enable-background="new 0 0 15.744 20.536" xml:space="preserve">
<g>
	<g>
		<path fill="#FFFFFF" d="M14.037,14.68l-3.27-1.634c-0.309-0.155-0.5-0.465-0.5-0.811v-1.156c0.078-0.097,0.16-0.205,0.244-0.325
			c0.426-0.6,0.766-1.267,1.012-1.985c0.484-0.221,0.799-0.7,0.799-1.238V6.161c0-0.33-0.125-0.649-0.344-0.897V3.441
			c0.018-0.188,0.096-1.309-0.715-2.233C10.561,0.406,9.418,0,7.871,0S5.184,0.406,4.48,1.208C3.67,2.133,3.744,3.254,3.764,3.441
			v1.822C3.545,5.512,3.422,5.831,3.422,6.161V7.53c0,0.416,0.189,0.805,0.514,1.063c0.312,1.242,0.969,2.177,1.197,2.478v1.133
			c0,0.33-0.18,0.635-0.471,0.794l-3.053,1.666C0.615,15.206,0,16.243,0,17.374v1.108c0,1.624,5.148,2.054,7.871,2.054
			c2.725,0,7.873-0.43,7.873-2.054v-1.04C15.744,16.265,15.09,15.207,14.037,14.68L14.037,14.68z M15.059,18.482
			c0,0.465-2.537,1.369-7.188,1.369c-4.648,0-7.186-0.904-7.186-1.369v-1.108c0-0.878,0.479-1.688,1.25-2.108L4.99,13.6
			c0.512-0.279,0.828-0.814,0.828-1.396v-1.376l-0.08-0.095C5.73,10.723,4.893,9.709,4.572,8.315L4.541,8.18L4.424,8.104
			C4.225,7.976,4.107,7.762,4.107,7.53V6.161c0-0.191,0.08-0.372,0.229-0.505l0.111-0.103V3.423V3.378
			C4.445,3.369,4.328,2.42,4.994,1.66c0.568-0.646,1.537-0.975,2.877-0.975c1.336,0,2.303,0.324,2.871,0.967
			c0.666,0.754,0.557,1.717,0.555,1.726l-0.004,2.176l0.115,0.104c0.146,0.131,0.229,0.312,0.229,0.503V7.53
			c0,0.298-0.195,0.561-0.486,0.651l-0.172,0.051l-0.055,0.17c-0.229,0.712-0.555,1.37-0.969,1.955
			c-0.102,0.144-0.201,0.272-0.287,0.369l-0.086,0.097v1.412c0,0.606,0.338,1.151,0.879,1.423l3.27,1.634
			c0.82,0.41,1.328,1.234,1.328,2.15V18.482z M15.059,18.482"/>
	</g>
</g>
</svg>
