<?xml version="1.0" encoding="utf-8"?>
<!-- Generator: Adobe Illustrator 16.0.0, SVG Export Plug-In . SVG Version: 6.00 Build 0)  -->
<!DOCTYPE svg PUBLIC "-//W3C//DTD SVG 1.1//EN" "http://www.w3.org/Graphics/SVG/1.1/DTD/svg11.dtd">
<svg version="1.1" id="Layer_1" xmlns="http://www.w3.org/2000/svg" xmlns:xlink="http://www.w3.org/1999/xlink" x="0px" y="0px"
	 width="18.309px" height="18.308px" viewBox="0 0 18.309 18.308" enable-background="new 0 0 18.309 18.308" xml:space="preserve">
<g>
	<g>
		<path fill="#FFFFFF" d="M18.309,18.308H0V0h18.309V18.308z M0.532,17.776h17.244V0.531H0.532V17.776z"/>
	</g>
	<g>
		<g>
			<path fill="#FFFFFF" d="M15.258,9.11H3.051V3.616h12.207V9.11z M3.582,8.578h11.145V4.147H3.582V8.578z"/>
		</g>
		<g>
			<path fill="#FFFFFF" d="M12.822,15.736c-1.344,0-2.437-1.092-2.437-2.436s1.093-2.437,2.437-2.437s2.436,1.093,2.436,2.437
				S14.166,15.736,12.822,15.736z M12.822,11.396c-1.05,0-1.904,0.854-1.904,1.905c0,1.05,0.854,1.904,1.904,1.904
				s1.904-0.854,1.904-1.904C14.727,12.25,13.872,11.396,12.822,11.396z"/>
		</g>
		<g>
			<rect x="3.316" y="11.217" fill="#FFFFFF" width="5.582" height="0.532"/>
		</g>
		<g>
			<rect x="3.316" y="13.034" fill="#FFFFFF" width="5.582" height="0.532"/>
		</g>
		<g>
			<rect x="3.316" y="14.829" fill="#FFFFFF" width="5.582" height="0.531"/>
		</g>
	</g>
</g>
</svg>
