<?xml version="1.0" encoding="utf-8"?>
<!-- Generator: Adobe Illustrator 16.0.0, SVG Export Plug-In . SVG Version: 6.00 Build 0)  -->
<!DOCTYPE svg PUBLIC "-//W3C//DTD SVG 1.1//EN" "http://www.w3.org/Graphics/SVG/1.1/DTD/svg11.dtd">
<svg version="1.1" id="Capa_1" xmlns="http://www.w3.org/2000/svg" xmlns:xlink="http://www.w3.org/1999/xlink" x="0px" y="0px"
	 width="23.889px" height="23.889px" viewBox="0 0 23.889 23.889" enable-background="new 0 0 23.889 23.889" xml:space="preserve">
<g>
	<g>
		<path fill="#FFFFFF" d="M12.733,0.799c2.686,0.19,5.211,1.342,7.113,3.243c1.9,1.901,3.053,4.426,3.242,7.112
			c0.016,0.21,0.189,0.37,0.396,0.37c0.01,0,0.02,0,0.029-0.001c0.219-0.016,0.387-0.206,0.371-0.425
			c-0.204-2.879-1.438-5.584-3.477-7.623c-2.035-2.037-4.742-3.271-7.619-3.473c-0.225-0.012-0.411,0.15-0.427,0.37
			S12.513,0.784,12.733,0.799L12.733,0.799z M12.733,0.799"/>
		<path fill="#FFFFFF" d="M11.153,23.088c-2.684-0.188-5.21-1.341-7.111-3.241c-1.902-1.902-3.055-4.428-3.243-7.113
			c-0.015-0.221-0.212-0.386-0.425-0.37c-0.221,0.016-0.387,0.206-0.371,0.427c0.203,2.877,1.436,5.582,3.475,7.619
			c2.037,2.039,4.742,3.272,7.621,3.475c0.009,0.001,0.018,0.002,0.027,0.002c0.209,0,0.383-0.161,0.397-0.371
			C11.539,23.294,11.374,23.104,11.153,23.088L11.153,23.088z M11.153,23.088"/>
		<path fill="#FFFFFF" d="M0.366,11.56c0.283,0.022,0.569,0.034,0.855,0.035l0,0c0.781,0,1.551-0.09,2.295-0.257l0.209,0.78
			c0.048,0.178,0.208,0.296,0.386,0.296c0.034,0,0.067-0.005,0.103-0.015c0.213-0.057,0.34-0.275,0.283-0.488l-0.209-0.776
			c0.613-0.188,1.205-0.435,1.772-0.733l0.4,0.695c0.073,0.128,0.208,0.199,0.347,0.199c0.066,0,0.136-0.017,0.199-0.053
			c0.189-0.109,0.256-0.355,0.146-0.545L6.751,10c0.535-0.339,1.043-0.729,1.518-1.167l0.57,0.57
			C8.918,9.482,9.02,9.521,9.122,9.521c0.102,0,0.204-0.039,0.281-0.117c0.156-0.155,0.156-0.408,0-0.563L8.832,8.267
			c0.438-0.473,0.829-0.98,1.167-1.518l0.699,0.403c0.063,0.036,0.131,0.054,0.199,0.054c0.139,0,0.271-0.071,0.346-0.2
			c0.111-0.19,0.045-0.435-0.146-0.545l-0.699-0.404c0.298-0.567,0.546-1.158,0.733-1.769l0.78,0.209
			c0.035,0.009,0.068,0.014,0.103,0.014c0.178,0,0.338-0.117,0.386-0.295c0.058-0.215-0.068-0.434-0.283-0.489l-0.781-0.21
			c0.23-1.021,0.313-2.082,0.225-3.151c-0.018-0.216-0.196-0.383-0.425-0.364C8.243,0.195,5.524,1.43,3.478,3.476
			C1.43,5.524,0.194,8.244,0.001,11.135C-0.014,11.353,0.147,11.542,0.366,11.56L0.366,11.56z M4.042,4.042
			c1.815-1.816,4.197-2.947,6.746-3.211c0.033,0.842-0.043,1.674-0.222,2.479L9.804,3.106C9.593,3.05,9.372,3.176,9.315,3.389
			C9.259,3.601,9.385,3.821,9.597,3.876l0.762,0.205c-0.17,0.544-0.389,1.072-0.651,1.576L9.022,5.264
			c-0.19-0.11-0.435-0.044-0.545,0.146C8.368,5.602,8.433,5.844,8.623,5.956l0.684,0.394c-0.303,0.479-0.651,0.932-1.04,1.354
			L7.71,7.146c-0.154-0.155-0.408-0.155-0.564,0c-0.154,0.156-0.154,0.408,0,0.564l0.559,0.557C7.28,8.658,6.827,9.005,6.351,9.31
			L5.955,8.625C5.845,8.433,5.601,8.368,5.41,8.479C5.22,8.588,5.153,8.833,5.263,9.023L5.66,9.711
			c-0.505,0.265-1.032,0.482-1.577,0.651L3.876,9.597C3.82,9.385,3.601,9.258,3.388,9.316S3.05,9.591,3.105,9.804l0.206,0.768
			C2.51,10.75,1.678,10.824,0.83,10.789C1.095,8.24,2.227,5.858,4.042,4.042L4.042,4.042z M4.042,4.042"/>
	</g>
	<path fill="#FFFFFF" d="M23.521,12.329c-0.282-0.022-0.569-0.035-0.854-0.035c-0.782,0-1.551,0.089-2.297,0.257l-0.209-0.78
		c-0.055-0.214-0.274-0.34-0.486-0.281c-0.215,0.056-0.341,0.275-0.283,0.487l0.207,0.776c-0.611,0.188-1.203,0.435-1.771,0.732
		l-0.4-0.694c-0.11-0.19-0.355-0.256-0.546-0.146c-0.19,0.111-0.256,0.354-0.146,0.545l0.402,0.698
		c-0.536,0.339-1.045,0.729-1.518,1.168l-0.572-0.571c-0.156-0.155-0.408-0.155-0.564,0s-0.156,0.408,0,0.564l0.572,0.572
		c-0.438,0.473-0.828,0.98-1.166,1.518l-0.701-0.403c-0.189-0.109-0.434-0.046-0.545,0.146c-0.109,0.191-0.044,0.436,0.147,0.546
		l0.7,0.403c-0.299,0.567-0.547,1.158-0.735,1.77l-0.778-0.21c-0.213-0.057-0.432,0.069-0.489,0.283
		c-0.058,0.213,0.069,0.432,0.282,0.488l0.781,0.211c-0.23,1.02-0.311,2.08-0.224,3.148c0.017,0.209,0.192,0.368,0.397,0.368
		c0.008,0,0.019-0.001,0.026-0.001c2.892-0.195,5.61-1.431,7.657-3.479c2.048-2.046,3.283-4.765,3.479-7.656
		C23.901,12.536,23.739,12.347,23.521,12.329L23.521,12.329z M19.847,19.847c-1.816,1.814-4.199,2.945-6.748,3.21
		c-0.032-0.841,0.043-1.675,0.223-2.48l0.762,0.205c0.035,0.009,0.07,0.015,0.104,0.015c0.178,0,0.338-0.118,0.387-0.297
		c0.057-0.212-0.07-0.432-0.282-0.488l-0.762-0.204c0.171-0.544,0.388-1.073,0.651-1.577l0.684,0.395
		c0.063,0.035,0.133,0.053,0.199,0.053c0.139,0,0.271-0.072,0.346-0.2c0.111-0.19,0.047-0.435-0.146-0.545l-0.683-0.394
		c0.303-0.479,0.65-0.932,1.04-1.354l0.556,0.557c0.078,0.078,0.18,0.117,0.283,0.117c0.102,0,0.204-0.039,0.281-0.117
		c0.156-0.155,0.156-0.408,0-0.563l-0.557-0.558c0.422-0.391,0.876-0.737,1.352-1.041l0.396,0.685
		c0.075,0.128,0.209,0.199,0.347,0.199c0.068,0,0.137-0.017,0.199-0.054c0.191-0.11,0.256-0.354,0.146-0.545l-0.396-0.686
		c0.505-0.265,1.033-0.484,1.578-0.653l0.205,0.764c0.048,0.179,0.209,0.296,0.385,0.296c0.033,0,0.068-0.005,0.104-0.013
		c0.213-0.058,0.34-0.276,0.282-0.489l-0.204-0.762c0.679-0.15,1.378-0.23,2.09-0.23c0.129,0,0.26,0.003,0.391,0.008
		C22.792,15.649,21.661,18.031,19.847,19.847L19.847,19.847z M19.847,19.847"/>
</g>
</svg>
