<?xml version="1.0" encoding="utf-8"?>
<!-- Generator: Adobe Illustrator 16.0.0, SVG Export Plug-In . SVG Version: 6.00 Build 0)  -->
<!DOCTYPE svg PUBLIC "-//W3C//DTD SVG 1.1//EN" "http://www.w3.org/Graphics/SVG/1.1/DTD/svg11.dtd">
<svg version="1.1" id="Capa_1" xmlns="http://www.w3.org/2000/svg" xmlns:xlink="http://www.w3.org/1999/xlink" x="0px" y="0px"
	 width="17.193px" height="18.419px" viewBox="0 0 17.193 18.419" enable-background="new 0 0 17.193 18.419" xml:space="preserve">
<path fill="#FFFFFF" d="M18.158,1.142l-0.875-0.875c-0.357-0.355-0.939-0.357-1.297,0.002l-0.961,0.959H0v17.191h17.193V3.404
	l0.092-0.095l0.873-0.871C18.514,2.083,18.514,1.5,18.158,1.142L18.158,1.142z M6.154,11.28l0.988,0.99l-1.359,0.372L6.154,11.28z
	 M15.982,3.743l-1.301-1.301l0.434-0.434l1.303,1.301L15.982,3.743z M15.549,4.177l-7.816,7.816l-1.299-1.303l7.813-7.814
	L15.549,4.177z M16.578,4.016v13.789H0.615V1.84h13.799l-8.633,8.632l-0.059,0.061l-0.65,2.388l-0.377,0.376
	c-0.121,0.119-0.121,0.313,0,0.434c0.061,0.06,0.139,0.091,0.217,0.091S5.07,13.79,5.131,13.73l0.375-0.377l2.389-0.651l8.227-8.227
	L16.578,4.016z M17.723,2.003l-0.871,0.873l-1.303-1.303l0.871-0.873c0.119-0.117,0.311-0.117,0.428,0l0.875,0.876
	C17.842,1.694,17.842,1.886,17.723,2.003L17.723,2.003z M17.723,2.003"/>
</svg>
