<?xml version="1.0" encoding="utf-8"?>
<!-- Generator: Adobe Illustrator 16.0.0, SVG Export Plug-In . SVG Version: 6.00 Build 0)  -->
<!DOCTYPE svg PUBLIC "-//W3C//DTD SVG 1.1//EN" "http://www.w3.org/Graphics/SVG/1.1/DTD/svg11.dtd">
<svg version="1.1" id="Layer_1" xmlns="http://www.w3.org/2000/svg" xmlns:xlink="http://www.w3.org/1999/xlink" x="0px" y="0px"
	 width="19.922px" height="18.263px" viewBox="0 0 19.922 18.263" enable-background="new 0 0 19.922 18.263" xml:space="preserve">
<g>
	<g>
		<path fill="#FFFFFF" d="M18.266,14.24l-3.172-1.585c-0.299-0.149-0.484-0.45-0.484-0.785v-1.123
			c0.076-0.094,0.154-0.199,0.238-0.316c0.41-0.58,0.742-1.228,0.98-1.925c0.469-0.215,0.773-0.679,0.773-1.2v-1.33
			c0-0.318-0.121-0.629-0.332-0.87V3.339c0.018-0.183,0.092-1.271-0.695-2.167C14.893,0.394,13.787,0,12.285,0
			S9.676,0.394,8.994,1.172C8.52,1.716,8.359,2.328,8.311,2.768C7.74,2.474,7.07,2.325,6.309,2.325c-3.449,0-3.65,2.939-3.654,2.988
			v1.521c-0.213,0.233-0.33,0.504-0.33,0.772v1.146c0,0.358,0.16,0.693,0.434,0.918c0.275,1.033,0.949,1.813,1.211,2.089v0.909
			c0,0.262-0.141,0.5-0.389,0.636L1.371,14.69C0.525,15.152,0,16.038,0,17.001v1.262h19.922V16.92
			C19.922,15.778,19.287,14.752,18.266,14.24L18.266,14.24z M4.648,16.854v0.742H0.664v-0.596c0-0.721,0.393-1.383,1.043-1.736
			l2.209-1.387c0.441-0.241,0.717-0.703,0.717-1.209v-1.192l-0.105-0.099c-0.01-0.009-0.891-0.842-1.152-1.976L3.346,9.269
			L3.232,9.196c-0.152-0.1-0.244-0.265-0.244-0.443V7.606c0-0.12,0.08-0.263,0.223-0.39L3.32,7.118V5.333
			c0.004-0.097,0.178-2.345,2.988-2.345c0.793,0,1.463,0.184,1.992,0.546v1.571c-0.213,0.241-0.334,0.552-0.334,0.87v1.33
			c0,0.1,0.012,0.199,0.035,0.294C8.01,7.64,8.027,7.676,8.041,7.712C8.059,7.768,8.072,7.825,8.1,7.877l0.002,0.002
			c0.084,0.176,0.209,0.333,0.363,0.457C8.467,8.343,8.469,8.35,8.471,8.354C8.49,8.43,8.512,8.508,8.533,8.581l0.027,0.086
			c0.006,0.017,0.01,0.031,0.016,0.048C8.588,8.75,8.598,8.786,8.611,8.819c0.02,0.06,0.041,0.119,0.064,0.185
			c0.01,0.026,0.021,0.052,0.033,0.078c0.025,0.07,0.053,0.137,0.082,0.203c0.006,0.017,0.014,0.033,0.02,0.049l0.02,0.041
			c0.008,0.02,0.018,0.038,0.027,0.056c0.031,0.071,0.064,0.141,0.096,0.208c0.006,0.01,0.01,0.021,0.016,0.032
			C8.99,9.712,9.01,9.752,9.031,9.791c0.035,0.067,0.072,0.133,0.107,0.195c0.018,0.03,0.035,0.062,0.051,0.091
			c0.049,0.08,0.094,0.154,0.137,0.225c0.01,0.016,0.02,0.031,0.029,0.045c0.08,0.125,0.148,0.225,0.207,0.305
			c0.016,0.021,0.027,0.039,0.041,0.056c0.008,0.009,0.02,0.024,0.023,0.032v1.1c0,0.32-0.174,0.615-0.455,0.77l-0.881,0.48
			l-0.15-0.016l-0.064,0.132l-1.867,1.02C5.246,14.751,4.648,15.757,4.648,16.854L4.648,16.854z M19.256,17.597H5.312v-0.742
			c0-0.853,0.465-1.637,1.215-2.046l2.961-1.616c0.496-0.271,0.805-0.79,0.805-1.354v-1.334l-0.064-0.077l-0.014-0.016
			c0,0-0.021-0.026-0.055-0.069c-0.002-0.003-0.004-0.006-0.006-0.009c-0.018-0.022-0.037-0.05-0.061-0.084
			c-0.002,0-0.002-0.001-0.002-0.001c-0.051-0.067-0.111-0.158-0.182-0.265C9.908,9.982,9.908,9.979,9.908,9.979
			C9.875,9.926,9.84,9.87,9.805,9.812C9.801,9.807,9.799,9.804,9.797,9.799C9.721,9.673,9.641,9.53,9.561,9.372V9.371
			C9.52,9.286,9.477,9.197,9.436,9.105C9.43,9.092,9.424,9.079,9.42,9.066C9.4,9.024,9.381,8.981,9.363,8.937
			C9.357,8.92,9.352,8.904,9.344,8.888C9.326,8.845,9.309,8.801,9.291,8.75C9.258,8.658,9.225,8.565,9.193,8.468L9.176,8.409
			C9.174,8.4,9.172,8.395,9.17,8.389C9.139,8.283,9.107,8.176,9.082,8.065L9.053,7.935L8.939,7.861
			C8.748,7.737,8.633,7.529,8.633,7.306v-1.33c0-0.185,0.08-0.359,0.223-0.489l0.109-0.099V3.204l-0.01-0.008
			C8.943,2.955,8.959,2.222,9.494,1.609c0.551-0.628,1.488-0.944,2.791-0.944c1.295,0,2.232,0.313,2.783,0.938
			c0.648,0.732,0.541,1.666,0.539,1.674l-0.002,2.111l0.109,0.101c0.145,0.128,0.221,0.303,0.221,0.487v1.33
			c0,0.288-0.189,0.543-0.471,0.631l-0.166,0.05l-0.053,0.163c-0.223,0.691-0.539,1.33-0.941,1.898
			c-0.098,0.139-0.193,0.264-0.275,0.357L13.945,10.5v1.37c0,0.588,0.326,1.117,0.852,1.379l3.172,1.586
			c0.795,0.396,1.287,1.196,1.287,2.085V17.597z M19.256,17.597"/>
	</g>
</g>
</svg>
