<?xml version="1.0" encoding="utf-8"?>
<!-- Generator: Adobe Illustrator 16.0.0, SVG Export Plug-In . SVG Version: 6.00 Build 0)  -->
<!DOCTYPE svg PUBLIC "-//W3C//DTD SVG 1.1//EN" "http://www.w3.org/Graphics/SVG/1.1/DTD/svg11.dtd">
<svg version="1.1" id="Layer_1" xmlns="http://www.w3.org/2000/svg" xmlns:xlink="http://www.w3.org/1999/xlink" x="0px" y="0px"
	 width="25.818px" height="15.145px" viewBox="0 0 25.818 15.145" enable-background="new 0 0 25.818 15.145" xml:space="preserve">
<g>
	<g>
		<path fill="#FFFFFF" d="M25.467,15.145H0.35C0.158,15.145,0,14.99,0,14.793V0.352C0,0.158,0.158,0,0.35,0h25.117
			c0.193,0,0.352,0.158,0.352,0.352v14.441C25.818,14.99,25.66,15.145,25.467,15.145L25.467,15.145z M0.705,14.443h24.408V0.705
			H0.705V14.443z M0.705,14.443"/>
		<path fill="#FFFFFF" d="M25.467,3.668c-1.828,0-3.312-1.488-3.312-3.316c0-0.193,0.154-0.352,0.35-0.352s0.352,0.158,0.352,0.352
			c0,1.439,1.172,2.611,2.611,2.611c0.193,0,0.352,0.158,0.352,0.352C25.818,3.51,25.66,3.668,25.467,3.668L25.467,3.668z
			 M25.467,3.668"/>
		<path fill="#FFFFFF" d="M22.504,15.145c-0.195,0-0.354-0.154-0.354-0.352c0-1.828,1.488-3.314,3.316-3.314
			c0.193,0,0.352,0.158,0.352,0.352c0,0.195-0.158,0.354-0.352,0.354c-1.439,0-2.611,1.17-2.611,2.609
			C22.855,14.99,22.699,15.145,22.504,15.145L22.504,15.145z M22.504,15.145"/>
		<path fill="#FFFFFF" d="M0.35,3.668C0.158,3.668,0,3.51,0,3.314c0-0.193,0.158-0.352,0.35-0.352c1.441,0,2.613-1.172,2.613-2.611
			C2.963,0.158,3.121,0,3.314,0C3.51,0,3.668,0.158,3.668,0.352C3.668,2.18,2.18,3.668,0.35,3.668L0.35,3.668z M0.35,3.668"/>
		<path fill="#FFFFFF" d="M3.314,15.145c-0.193,0-0.352-0.154-0.352-0.352c0-1.439-1.172-2.609-2.613-2.609
			C0.158,12.184,0,12.025,0,11.83c0-0.193,0.158-0.352,0.35-0.352c1.83,0,3.318,1.486,3.318,3.314
			C3.668,14.99,3.51,15.145,3.314,15.145L3.314,15.145z M3.314,15.145"/>
		<path fill="#FFFFFF" d="M13.057,11.266c-0.963,0-2.17-0.602-2.682-1.006c-0.15-0.121-0.176-0.344-0.055-0.496
			c0.119-0.15,0.34-0.178,0.494-0.055c0.441,0.348,1.488,0.852,2.242,0.852c0.732,0,1.814-0.391,1.814-1.23
			c0-0.748-0.738-1.045-1.701-1.354l-0.285-0.094c-0.76-0.258-2.344-0.791-2.344-2.072c0-1.242,0.961-2.074,2.398-2.074
			c1.445,0,2.352,0.744,2.391,0.775c0.15,0.123,0.172,0.346,0.043,0.494c-0.123,0.15-0.344,0.172-0.494,0.049
			c-0.014-0.014-0.764-0.613-1.939-0.613c-1.049,0-1.699,0.523-1.699,1.369c0,0.684,0.947,1.094,1.869,1.406l0.273,0.09
			c0.873,0.277,2.191,0.701,2.191,2.023C15.576,10.664,14.102,11.266,13.057,11.266L13.057,11.266z M13.057,11.266"/>
		<path fill="#FFFFFF" d="M12.939,12.314c-0.197,0-0.354-0.158-0.354-0.354V3.217c0-0.191,0.156-0.35,0.354-0.35
			c0.193,0,0.352,0.158,0.352,0.35v8.744C13.291,12.156,13.133,12.314,12.939,12.314L12.939,12.314z M12.939,12.314"/>
	</g>
</g>
</svg>
