<?xml version="1.0" encoding="utf-8"?>
<!-- Generator: Adobe Illustrator 18.1.1, SVG Export Plug-In . SVG Version: 6.00 Build 0)  -->
<svg version="1.1" xmlns="http://www.w3.org/2000/svg" xmlns:xlink="http://www.w3.org/1999/xlink" x="0px" y="0px"
	 viewBox="0 0 300 300" enable-background="new 0 0 300 300" xml:space="preserve">
<g id="Capa_2" display="none">
	<rect x="-10.7" y="-0.4" display="inline" fill="#FF0000" width="364.8" height="326.7"/>
</g>
<g id="Capa_1">
	<g>
		<path fill="#FFFFFF" d="M150.6,4.4C70.6,4.4,5.8,69.2,5.8,149.2c0,80,64.8,144.8,144.8,144.8c80,0,144.8-64.8,144.8-144.8
			C295.5,69.2,230.6,4.4,150.6,4.4z M150.6,283.1c-74,0-134-60-134-134c0-74,60-133.9,134-133.9c74,0,133.9,60,133.9,133.9
			C284.6,223.2,224.6,283.1,150.6,283.1z"/>
		<path fill="#FFFFFF" d="M150.6,23.4c-69.5,0-125.8,56.3-125.8,125.8c0,69.5,56.3,125.8,125.8,125.8s125.8-56.3,125.8-125.8
			C276.4,79.7,220.1,23.4,150.6,23.4z M163.7,183.1L105,217v-67.8V81.4l58.7,33.9l58.7,33.9L163.7,183.1z"/>
	</g>
</g>
</svg>
