<?xml version="1.0" encoding="utf-8"?>
<!-- Generator: Adobe Illustrator 18.1.1, SVG Export Plug-In . SVG Version: 6.00 Build 0)  -->
<svg version="1.1" id="Capa_1" xmlns="http://www.w3.org/2000/svg" xmlns:xlink="http://www.w3.org/1999/xlink" x="0px" y="0px"
	 viewBox="0 0 300 300" enable-background="new 0 0 300 300" xml:space="preserve">
<g>
	<path fill="#1E1E1E" d="M114.5,257.6l-1.4,6.3l-76-0.6l-1.8-9c-0.9-4.6-5-8-9.7-8l-0.6,0l-11.9,0.6l1.7-213.8L27.1,34c0,0,0,0,0,0
		c4.5,0,8.4-3,9.7-7.2l2.5-8.1l75.4,0.6l2.3,8c1.2,4.2,5,7.1,9.3,7.2l0.3,0l11.7-0.4l-0.6,73.2c2-5.6,4-11.1,5.7-15.9l0.5-63.1
		l-17.6,0.6l-0.2,0c-2.1-0.1-3.5-1.7-3.9-3.1L119,13.7L35.2,13l-3.7,12c-0.4,1.4-1.8,3-4.1,3.1l-18.2-1L7.4,252.9l18.3-0.9
		c2.2,0.1,3.7,1.8,4,3.5l2.7,13.4l85.2,0.7l2.2-9.9L114.5,257.6z"/>
	<path fill="#1E1E1E" d="M275.8,62.3l-0.2,0c-1.9-0.8-2.8-2.7-2.7-4.2l0.6-12.5l-79-27.9l-7.4,10.2c-0.9,1.2-2.7,2.2-4.9,1.6
		l-16.9-6.9L90.2,235.3l17.6,5.1c2.1,0.8,2.9,2.9,2.7,4.6l-1.8,13.6l80.3,28.4l7.1-11.7c0.9-1.4,2.8-2.5,5-1.9l16.6,6.2l74.9-212.1
		L275.8,62.3z M214.2,272.3l-11.3-4.3c-4.5-1.4-9.3,0.4-11.7,4.3l-4.7,7.8l-71.7-25.3l1.2-9.1c0.6-4.7-2.1-9.2-6.6-10.7l-0.6-0.2
		l-11.4-3.3l71.1-201.4l11.4,5c0,0,0,0,0,0c4.3,1.5,9-0.3,11.6-3.8l5-6.9l71.1,25.1l-0.4,8.3c-0.2,4.3,2.5,8.3,6.5,9.8l0.3,0.1
		l11.2,3.4L214.2,272.3z"/>
	<g>
		<path fill="#1E1E1E" d="M126.5,45.8c-9.6-0.1-17.7-6.5-20.2-15.3L47.6,30c-2.7,8.7-10.9,15.1-20.5,15c-0.4,0-0.8,0-1.3-0.1
			l-1.5,190.2c0.4,0,0.8-0.1,1.3-0.1c10.2,0.1,18.7,7.4,20.7,17l57.8,0.5c1-4.8,3.7-9,7.4-12l-2.1-2.9l-14.6-3.9
			c0,0,26.4-77.8,26.4-79.3c0-0.4,2.1-6.4,5.1-15.1l0.7-93.7C126.9,45.8,126.7,45.8,126.5,45.8z M81.3,208l-1.9,6.7l-2.4-6.6l-7,0.2
			l5.5-4.3l-2.4-6.6l5.8,3.9l5.5-4.3l-1.9,6.7l5.8,3.9L81.3,208z M107,185H42v-27h9v17h20v-13h9v13h27V185z M107,131.5
			c-2,0.6-2.4,0.5-7.7,0.5H89c-6,0-9,2.5-9,7.2v3.8h27v10H42v-15.5c0-10.6,5-15.5,15.1-15.5h5.1c6.7,0,11.1,2.2,13.2,6.7
			c2.1-5.1,7.1-6.7,13.9-6.7h10.1c3.2,0,4.7,0.1,7.7-0.9V131.5z M107,116H42V88h9v17h18V91h9v14h20V88h9V116z M107,81H42V53h9v18h18
			V57h9v14h20V53h9V81z"/>
		<path fill="#1E1E1E" d="M64.5,133h-6.4c-4.7,0-7.1,1.1-7.1,4.8v5.2h20v-4.3C71,134.9,69.7,133,64.5,133z"/>
	</g>
	<g>
		<path fill="#1E1E1E" d="M192.2,126.5l-9.2-3.3c-4.4-1.6-6.4-0.4-7.5,2.7l-1.6,4.6l20.8,7.4l1.6-4.6
			C197.4,130.2,196.6,128,192.2,126.5z"/>
		<path fill="#1E1E1E" d="M270.2,78.3c-9.1-3.2-14.6-11.9-14.1-21.1l-55.3-19.5c-5.4,7.4-15.2,10.7-24.2,7.5
			c-0.4-0.1-0.8-0.3-1.2-0.5L112,224.1c0.4,0.1,0.8,0.2,1.2,0.4c9.6,3.4,15.3,13.1,14,22.8l54.5,19.2c5.1-8.4,15.6-12.4,25.2-9
			c0.2,0.1,0.4,0.2,0.6,0.2l63.3-179.3C270.6,78.4,270.4,78.4,270.2,78.3z M174.7,216.9l-4,5.7l-0.1-7l-6.7-2l6.6-2.3l-0.1-7
			l4.2,5.6l6.6-2.3l-4,5.7l4.2,5.6L174.7,216.9z M208.8,199.4l-52.7-18.6l-3.6,10.1l-8.8-3.1l10.5-29.8l8.8,3.1l-3.6,10.1l52.7,18.6
			L208.8,199.4z M217.3,175.4l-61.4-21.7l3.4-9.7l61.4,21.7L217.3,175.4z M223.2,158.7L161.7,137l5-14.2c3.4-9.7,10.4-12.5,20.3-9
			l8,2.8c9.8,3.5,13.5,10.1,10.1,19.8l-1.6,4.6l23.1,8.2L223.2,158.7z M240.1,113c-3.3,9.5-10.7,12.4-20.5,8.9l-3.8-1.3l3.2-9.1
			l4.4,1.6c4.4,1.6,6.7,0.2,7.7-2.9c1.1-3.1,0.2-5.6-4.2-7.1c-12.6-4.5-21.7,13.6-39.2,7.4c-9.8-3.5-13.7-10.3-10.4-19.7
			c3.3-9.4,10.6-12.2,20.5-8.8l1.9,0.7l-3.2,9.1l-2.5-0.9c-4.4-1.6-6.7-0.4-7.8,2.7c-1.1,3.1,0,5.4,4.3,7
			c12.6,4.5,21.7-13.6,39.2-7.4C239.6,96.6,243.5,103.5,240.1,113z"/>
	</g>
</g>
</svg>
